<svg width="107" height="147" viewBox="0 0 103 118" fill="none" xmlns="http://www.w3.org/2000/svg">
<rect x="20.1579" y="20.3158" width="72.1754" height="87.6842" fill="black" stroke="black" stroke-width="4" stroke-linejoin="round"/>
<rect x="11.6667" y="10" width="72.1754" height="87.6842" fill="#FEE333" stroke="black" stroke-width="4" stroke-linejoin="round"/>
<path d="M33.0144 73.1226H20.6667V81.5906C20.6667 85.0004 23.4308 87.7645 26.8405 87.7645C30.2503 87.7645 33.0144 85.0004 33.0144 81.5906V73.1226Z" fill="#FCBD01" stroke="black" stroke-linejoin="round"/>
<path d="M33.0144 23V73.1226C33.0144 80.0129 33.0144 87.7645 26.2231 87.7645H63.2054C65.9668 87.7645 68.2054 85.5259 68.2054 82.7645V23C68.2054 20.2386 65.9668 18 63.2054 18H38.0144C35.253 18 33.0144 20.2386 33.0144 23Z" fill="#FFF09D" stroke="black" stroke-linejoin="round"/>
<path d="M33.0144 38.671L28.6927 31.7807L33.0144 26.6129H68.2054V31.7807H71.9097L75.614 38.671H68.2054V33.5032H33.0144V38.671Z" fill="#FF5E5E"/>
<path d="M68.2054 31.7807V26.6129H33.0144L28.6927 31.7807L33.0144 38.671V33.5032H68.2054M68.2054 31.7807H71.9097L75.614 38.671H68.2054V33.5032M68.2054 31.7807V33.5032" stroke="black" stroke-linejoin="round"/>
<path d="M39.1882 40.3935H46.5969" stroke="black" stroke-width="2" stroke-linecap="round" stroke-linejoin="round"/>
<path d="M54.6229 40.3935H62.0316" stroke="black" stroke-width="2" stroke-linecap="round" stroke-linejoin="round"/>
<path d="M33.0144 33.5032V31.7806" stroke="black" stroke-linecap="round" stroke-linejoin="round"/>
<path fill-rule="evenodd" clip-rule="evenodd" d="M36.2227 66.2322C36.2227 66.0942 36.3347 65.9822 36.4727 65.9822L65.3644 65.9838C65.5025 65.9838 65.6144 66.0957 65.6144 66.2338C65.6144 66.3718 65.5025 66.4838 65.3644 66.4838L36.4727 66.4822C36.3347 66.4822 36.2227 66.3703 36.2227 66.2322ZM36.2227 69.6774C36.2227 69.5393 36.3347 69.4274 36.4727 69.4274H65.3644C65.5025 69.4274 65.6144 69.5393 65.6144 69.6774C65.6144 69.8155 65.5025 69.9274 65.3644 69.9274H36.4727C36.3347 69.9274 36.2227 69.8155 36.2227 69.6774ZM37.7623 72.8726C37.6242 72.8726 37.5123 72.9845 37.5123 73.1226C37.5123 73.2606 37.6242 73.3726 37.7623 73.3726H64.0275C64.1655 73.3726 64.2775 73.2606 64.2775 73.1226C64.2775 72.9845 64.1655 72.8726 64.0275 72.8726H37.7623ZM38.8255 76.5677C38.8255 76.4297 38.9374 76.3177 39.0755 76.3177H62.7142C62.8523 76.3177 62.9642 76.4297 62.9642 76.5677C62.9642 76.7058 62.8523 76.8177 62.7142 76.8177H39.0755C38.9374 76.8177 38.8255 76.7058 38.8255 76.5677ZM40.3887 79.7629C40.2507 79.7629 40.1387 79.8748 40.1387 80.0129C40.1387 80.151 40.2507 80.2629 40.3887 80.2629H61.4009C61.539 80.2629 61.6509 80.151 61.6509 80.0129C61.6509 79.8748 61.539 79.7629 61.4009 79.7629H40.3887Z" fill="black"/>
<path d="M41.6578 52.4516H50.3012" stroke="black" stroke-linecap="round" stroke-linejoin="round"/>
</svg>
