<svg width="103" height="118" viewBox="0 0 103 126" fill="none" xmlns="http://www.w3.org/2000/svg">
<rect x="19.4912" y="21.158" width="72.1754" height="94.8421" fill="black" stroke="black" stroke-width="4" stroke-linejoin="round"/>
<rect x="11" y="10" width="72.1754" height="94.8421" fill="#FF5E5E" stroke="black" stroke-width="4" stroke-linejoin="round"/>
<path d="M33.7794 92.7657H47.2666H60.9748C61.2773 89.9239 61.251 88.3307 60.9748 85.4891C62.7825 82.6092 63.0673 81.019 63.9735 78.2125L62.6884 68.2073C68.0217 64.7269 71.8314 54.4692 72.9474 46.3776C71.5639 34.4217 69.5908 30.92 65.687 25.4574C63.4256 26.097 62.26 28.1861 61.4032 31.8244C61.2237 34.5531 61.5357 36.5669 62.6884 38.1914H63.9735C63.5414 41.7448 63.8574 41.7214 64.4019 43.6488C63.0066 43.6937 61.9528 43.3296 60.5464 46.3776C59.6045 36.8297 59.2797 32.6731 58.2608 25.0878C57.8526 22.0489 56.568 20 55.1252 20H47.2666H39.5856C38.1371 20 36.8489 22.0651 36.4454 25.1201C35.4463 32.6849 35.1264 36.8432 34.2009 46.3776C32.8173 43.3296 31.7805 43.6937 30.4077 43.6488C30.9434 41.7214 31.2542 41.7448 30.8291 38.1914H32.0936C33.2276 36.5669 33.5346 34.5531 33.358 31.8244C32.515 28.1861 31.3682 26.097 29.1432 25.4574C25.3024 30.92 23.3612 34.4217 22 46.3776C23.098 54.4692 26.8463 64.7269 32.0936 68.2073L30.8291 78.2125C31.7207 81.019 32.001 82.6092 33.7794 85.4891C33.5077 88.3307 33.4818 89.9239 33.7794 92.7657Z" fill="#D9D9D9"/>
<path d="M33.7794 92.7657L33.2822 92.8177C33.3088 93.0723 33.5235 93.2657 33.7794 93.2657V92.7657ZM33.7794 85.4891L34.2772 85.5367C34.2876 85.4281 34.2622 85.3192 34.2049 85.2264L33.7794 85.4891ZM30.8291 78.2125L30.3331 78.1498C30.324 78.2218 30.3307 78.2948 30.3526 78.3639L30.8291 78.2125ZM32.0936 68.2073L32.5896 68.2699C32.6134 68.0814 32.5283 67.8956 32.3699 67.7906L32.0936 68.2073ZM22 46.3776L21.5032 46.321C21.4985 46.3622 21.499 46.4037 21.5045 46.4448L22 46.3776ZM29.1432 25.4574L29.2814 24.9769C29.0765 24.918 28.8568 24.9955 28.7342 25.1698L29.1432 25.4574ZM33.358 31.8244L33.8569 31.7921C33.8552 31.765 33.8512 31.7381 33.8451 31.7116L33.358 31.8244ZM32.0936 38.1914V38.6914C32.2569 38.6914 32.41 38.6116 32.5035 38.4776L32.0936 38.1914ZM30.8291 38.1914V37.6914H30.2658L30.3327 38.2508L30.8291 38.1914ZM30.4077 43.6488L29.9259 43.515L29.7556 44.1278L30.3913 44.1486L30.4077 43.6488ZM34.2009 46.3776L33.7456 46.5842C33.8392 46.7904 34.0596 46.9079 34.2829 46.8708C34.5062 46.8337 34.6767 46.6512 34.6986 46.4259L34.2009 46.3776ZM36.4454 25.1201L36.9411 25.1855L36.9411 25.1855L36.4454 25.1201ZM60.9748 92.7657V93.2657C61.2305 93.2657 61.445 93.0728 61.472 92.8186L60.9748 92.7657ZM60.9748 85.4891L60.5513 85.2233C60.4926 85.3169 60.4665 85.4274 60.4772 85.5375L60.9748 85.4891ZM63.9735 78.2125L64.4493 78.3662C64.4719 78.2961 64.4788 78.2219 64.4694 78.1488L63.9735 78.2125ZM62.6884 68.2073L62.4151 67.7885C62.2545 67.8933 62.168 68.0807 62.1924 68.271L62.6884 68.2073ZM72.9474 46.3776L73.4427 46.4459C73.4484 46.4042 73.4489 46.3619 73.4441 46.3201L72.9474 46.3776ZM65.687 25.4574L66.0938 25.1667C65.9712 24.9951 65.754 24.9189 65.551 24.9763L65.687 25.4574ZM61.4032 31.8244L60.9165 31.7098C60.9102 31.7367 60.9061 31.764 60.9043 31.7916L61.4032 31.8244ZM62.6884 38.1914L62.2806 38.4807C62.3743 38.6129 62.5263 38.6914 62.6884 38.6914V38.1914ZM63.9735 38.1914L64.4698 38.2518L64.538 37.6914H63.9735V38.1914ZM64.4019 43.6488L64.4179 44.1486L65.0568 44.1281L64.8831 43.5129L64.4019 43.6488ZM60.5464 46.3776L60.0489 46.4266C60.071 46.6512 60.2408 46.8331 60.4633 46.8706C60.6859 46.9081 60.9059 46.7919 61.0005 46.587L60.5464 46.3776ZM58.2608 25.0878L58.7564 25.0212L58.7564 25.0212L58.2608 25.0878ZM47.2666 92.2657H33.7794V93.2657H47.2666V92.2657ZM34.2767 92.7136C33.9831 89.9097 34.0081 88.3503 34.2772 85.5367L33.2817 85.4415C33.0073 88.3111 32.9806 89.9381 33.2822 92.8177L34.2767 92.7136ZM34.2049 85.2264C32.4671 82.4124 32.2067 80.8974 31.3057 78.0611L30.3526 78.3639C31.2347 81.1407 31.5348 82.806 33.354 85.7518L34.2049 85.2264ZM31.3252 78.2752L32.5896 68.2699L31.5975 68.1446L30.3331 78.1498L31.3252 78.2752ZM32.3699 67.7906C29.8691 66.1319 27.6683 62.8071 25.9499 58.8236C24.2389 54.8572 23.0388 50.3142 22.4955 46.3103L21.5045 46.4448C22.0592 50.5325 23.2822 55.1642 25.0317 59.2197C26.7738 63.2581 29.0707 66.8023 31.8172 68.6239L32.3699 67.7906ZM22.4968 46.4341C23.1754 40.4733 23.9952 36.6547 25.1104 33.6568C26.223 30.6658 27.6383 28.4671 29.5523 25.745L28.7342 25.1698C26.8073 27.9104 25.3316 30.1938 24.1731 33.3082C23.0172 36.4158 22.1858 40.3259 21.5032 46.321L22.4968 46.4341ZM29.0051 25.938C30.9359 26.493 32.0296 28.3063 32.8709 31.9373L33.8451 31.7116C33.0004 28.066 31.8004 25.701 29.2814 24.9769L29.0051 25.938ZM32.859 31.8567C33.0327 34.5412 32.7219 36.4178 31.6836 37.9052L32.5035 38.4776C33.7333 36.716 34.0364 34.5651 33.8569 31.7921L32.859 31.8567ZM32.0936 37.6914H30.8291V38.6914H32.0936V37.6914ZM30.3327 38.2508C30.5449 40.0251 30.5655 40.8522 30.4832 41.4631C30.4425 41.7648 30.3751 42.0249 30.2806 42.3383C30.1878 42.6458 30.0614 43.0274 29.9259 43.515L30.8894 43.7827C31.0217 43.3065 31.1351 42.9683 31.238 42.627C31.3391 42.2917 31.4233 41.9741 31.4742 41.5966C31.575 40.8489 31.5384 39.9111 31.3256 38.132L30.3327 38.2508ZM30.3913 44.1486C30.5728 44.1545 30.7492 44.1537 30.9072 44.1539C31.0691 44.1542 31.2141 44.1557 31.3533 44.1645C31.6269 44.1819 31.8577 44.2271 32.0804 44.3361C32.525 44.5537 33.0683 45.092 33.7456 46.5842L34.6562 46.1709C33.95 44.6151 33.283 43.8114 32.5201 43.4379C32.139 43.2514 31.7667 43.1887 31.4166 43.1665C31.2439 43.1555 31.0718 43.1542 30.9089 43.1539C30.742 43.1536 30.5858 43.1544 30.424 43.1491L30.3913 44.1486ZM34.6986 46.4259C35.6247 36.8848 35.9435 32.7392 36.9411 25.1855L35.9497 25.0546C34.9492 32.6305 34.6281 36.8016 33.7033 46.3292L34.6986 46.4259ZM39.5856 20.5H47.2666V19.5H39.5856V20.5ZM36.9411 25.1855C37.1366 23.7054 37.543 22.4982 38.0493 21.6768C38.5655 20.8393 39.1171 20.5 39.5856 20.5V19.5C38.6057 19.5 37.7889 20.1933 37.198 21.1521C36.5972 22.1269 36.1577 23.4798 35.9497 25.0546L36.9411 25.1855ZM47.2666 93.2657H60.9748V92.2657H47.2666V93.2657ZM61.472 92.8186C61.7786 89.9383 61.7514 88.3108 61.4725 85.4407L60.4772 85.5375C60.7506 88.3506 60.7761 89.9095 60.4776 92.7127L61.472 92.8186ZM61.3983 85.7549C63.2476 82.8087 63.5528 81.1428 64.4493 78.3662L63.4977 78.0589C62.5819 80.8953 62.3174 82.4097 60.5513 85.2233L61.3983 85.7549ZM64.4694 78.1488L63.1843 68.1436L62.1924 68.271L63.4776 78.2762L64.4694 78.1488ZM62.9616 68.626C65.7515 66.8054 68.0862 63.2618 69.8573 59.2224C71.6356 55.1665 72.8788 50.5343 73.4427 46.4459L72.4521 46.3092C71.9 50.3125 70.6803 54.8549 68.9415 58.8209C67.1953 62.8034 64.9585 66.1288 62.4151 67.7885L62.9616 68.626ZM73.4441 46.3201C72.7503 40.3246 71.9052 36.4139 70.73 33.3057C69.5523 30.1907 68.0522 27.9071 66.0938 25.1667L65.2802 25.7481C67.2256 28.4703 68.664 30.6688 69.7946 33.6593C70.9278 36.6565 71.761 40.4746 72.4507 46.435L73.4441 46.3201ZM65.551 24.9763C62.9966 25.6987 61.7758 28.0607 60.9165 31.7098L61.8899 31.939C62.7441 28.3116 63.8547 26.4953 65.8231 25.9386L65.551 24.9763ZM60.9043 31.7916C60.7218 34.5658 61.0301 36.7184 62.2806 38.4807L63.0961 37.9021C62.0414 36.4155 61.7256 34.5405 61.9021 31.8572L60.9043 31.7916ZM62.6884 38.6914H63.9735V37.6914H62.6884V38.6914ZM63.4772 38.1311C63.2608 39.9101 63.2236 40.8489 63.3261 41.5977C63.3779 41.9757 63.4636 42.2937 63.5665 42.6292C63.6711 42.9707 63.7862 43.3087 63.9207 43.7848L64.8831 43.5129C64.7453 43.0253 64.6167 42.6434 64.5225 42.3361C64.4265 42.0228 64.3581 41.7632 64.3169 41.462C64.2334 40.8523 64.2541 40.026 64.4698 38.2518L63.4772 38.1311ZM64.3858 43.1491C64.2211 43.1544 64.0619 43.1536 63.8924 43.1539C63.7269 43.1542 63.5524 43.1555 63.3774 43.1665C63.023 43.1886 62.6466 43.251 62.2613 43.4365C61.4887 43.8087 60.8109 44.611 60.0924 46.1681L61.0005 46.587C61.6883 45.0961 62.2406 44.5565 62.6953 44.3375C62.9236 44.2275 63.1602 44.182 63.4398 44.1645C63.5817 44.1557 63.7295 44.1542 63.8942 44.1539C64.0548 44.1537 64.2339 44.1545 64.4179 44.1486L64.3858 43.1491ZM61.044 46.3285C60.1027 36.7874 59.7768 32.6178 58.7564 25.0212L57.7653 25.1543C58.7826 32.7283 59.1062 36.8719 60.0489 46.4266L61.044 46.3285ZM55.1252 19.5H47.2666V20.5H55.1252V19.5ZM58.7564 25.0212C58.5459 23.4546 58.106 22.1098 57.5061 21.1411C56.9158 20.188 56.1014 19.5 55.1252 19.5V20.5C55.5919 20.5 56.1412 20.8365 56.6559 21.6676C57.161 22.4831 57.5675 23.6821 57.7653 25.1543L58.7564 25.0212Z" fill="black"/>
<path d="M40.6393 41.8298L43.9529 45.4681" stroke="black" stroke-width="2" stroke-linecap="round" stroke-linejoin="round"/>
<path d="M53.8939 41.8298L50.5803 45.4681" stroke="black" stroke-width="2" stroke-linecap="round" stroke-linejoin="round"/>
<path d="M45.6098 52.8144L45.763 52.6398C46.5596 51.7314 47.9736 51.7314 48.7702 52.6398L48.9234 52.8144C49.653 54.0622 50.1354 55.4387 50.3445 56.8689L50.4681 57.7149C50.5428 58.2255 50.5821 58.7472 50.5758 59.2632C50.4996 65.4868 49.4757 58.4818 49.4757 58.4818L48.9234 56.5927L48.779 56.0985C48.5129 55.1883 47.9873 54.3753 47.2666 53.759C46.5459 54.3753 46.0203 55.1883 45.7542 56.0985L45.6098 56.5927L45.0575 58.4818C45.0575 58.4818 44.1292 64.8324 43.9746 60.0679C43.9406 59.0181 44.0292 57.9601 44.1811 56.9207L44.1887 56.8689C44.3978 55.4387 44.8802 54.0622 45.6098 52.8144Z" fill="black"/>
<path d="M34.012 47.2872L33.5978 50.9255L33.1836 58.202" stroke="black" stroke-linecap="round" stroke-linejoin="round"/>
<path d="M60.5212 47.2872L60.9354 50.9255L61.3497 58.202" stroke="black" stroke-linecap="round" stroke-linejoin="round"/>
<path d="M31.6924 54.5638C31.6456 53.5579 31.6735 52.644 31.729 51.787C31.8789 49.4754 32.6618 50.2736 33.5 48.1141C35 44.2494 29.2652 42.8786 29.4998 45.0317C29.5213 45.2938 29.5327 45.5173 29.5478 45.7063C29.5849 46.1715 30.185 47.5603 30.4979 47.9067C30.5793 47.9968 30.6982 48.1825 30.6982 48.304V49.4142C30.6982 49.5396 30.6905 49.6642 30.6847 49.7895C30.6666 50.183 30.6711 51.1772 31.0296 52.5792C31.4999 54.4185 31.6924 54.5638 31.6924 54.5638Z" fill="#949494"/>
<path d="M62.8407 54.5636C62.6234 52.495 62.5544 51.5112 62.5112 50.186C62.4753 49.0849 61.2315 47.9156 60.9437 46.8522C61.0269 44.6171 64.6822 43.5748 65.1652 44.4437L64.4384 45.9258C64.1481 46.5178 63.9574 47.1536 63.8739 47.8077L63.8348 48.114V49.3879C63.8348 49.5308 63.8299 49.6727 63.8187 49.8152C63.7764 50.3538 63.6551 51.7846 63.5035 52.5791C63.3141 53.5714 62.8407 54.5636 62.8407 54.5636Z" fill="#949494"/>
</svg>
