<svg width="103" height="118" viewBox="0 0 103 118" fill="none" xmlns="http://www.w3.org/2000/svg">
<rect x="19.8492" y="20.3158" width="72.1508" height="87.6842" fill="black" stroke="black" stroke-width="4" stroke-linejoin="round"/>
<rect x="11.3611" y="10" width="72.1508" height="87.6842" fill="#00FF75" stroke="black" stroke-width="4" stroke-linejoin="round"/>
<path d="M37.0735 37.2855C36.7216 34.2421 36.9488 31.6743 37.7345 29.8634C39.9009 24.8631 45.0382 22.9122 49.1932 25.5261C50.1838 26.1446 51.0626 26.9938 51.7789 28.0244C52.4952 29.055 53.0346 30.2466 53.3659 31.5301C53.7033 32.8115 53.8264 34.1607 53.728 35.4998C53.6296 36.8389 53.3117 38.1411 52.7928 39.3311C51.6356 42.0042 50.2544 44.0269 47.8037 44.6874C47.511 44.7668 47.7024 45.9487 47.8006 46.288L48.4202 49.4891L41.2266 51.7966C38.4929 42.9238 37.1688 38.1226 37.0735 37.2855ZM46.2656 40.2126C46.8328 40.1022 47.3762 39.8574 47.8643 39.4923C48.3524 39.1273 48.7755 38.6492 49.1093 38.0858C49.4451 37.5242 49.6853 36.8879 49.8157 36.2138C49.9462 35.5397 49.9644 34.8411 49.8693 34.1585C49.7776 33.4752 49.5744 32.8205 49.2713 32.2325C48.9683 31.6444 48.5715 31.1346 48.1038 30.7325C47.6375 30.3281 47.1094 30.0389 46.5499 29.8817C45.9904 29.7246 45.4106 29.7025 44.8439 29.8168C44.2767 29.9273 43.7333 30.1723 43.2452 30.5376C42.757 30.9029 42.3339 31.3812 42.0003 31.9448C41.6645 32.5062 41.4244 33.1423 41.294 33.8162C41.1635 34.4901 41.1453 35.1885 41.2403 35.871C41.332 36.5544 41.5354 37.2091 41.8386 37.7972C42.1418 38.3853 42.5388 38.895 43.0067 39.297C43.4729 39.7011 44.0009 39.9901 44.5602 40.1472C45.1196 40.3044 45.6992 40.3266 46.2656 40.2126Z" fill="#E4280F"/>
<path d="M37.5694 37.239L37.5695 37.2399C37.5887 37.4083 37.6795 37.8302 37.8617 38.5446C38.0404 39.245 38.2989 40.1961 38.6406 41.4009C39.2982 43.7195 40.2615 46.9694 41.5509 51.1634L47.8469 49.1439L47.3146 46.3934C47.2553 46.178 47.1822 45.7782 47.1575 45.4128C47.1447 45.2249 47.1422 45.013 47.1737 44.8281C47.1893 44.7367 47.2179 44.6219 47.2782 44.5135C47.3403 44.4021 47.4591 44.2593 47.6632 44.2039L47.664 44.2037C49.8863 43.6047 51.1881 41.77 52.334 39.123L52.3346 39.1218C52.8307 37.9841 53.1357 36.7365 53.2301 35.4518C53.3245 34.167 53.2062 32.8737 52.8833 31.6476L52.8827 31.6452C52.5657 30.4169 52.0507 29.2818 51.3714 28.3044C50.6922 27.327 49.8633 26.5283 48.9363 25.9495L48.9348 25.9485C45.0985 23.5351 40.269 25.2804 38.1931 30.0716L38.193 30.0719C37.4558 31.7712 37.2226 34.2397 37.5694 37.239ZM48.1686 39.8961C47.626 40.3019 47.0161 40.5785 46.373 40.7039C45.7304 40.833 45.0713 40.8077 44.4357 40.6291C43.8003 40.4506 43.206 40.1239 42.686 39.6733C42.1644 39.2251 41.7274 38.6615 41.3962 38.0191C41.065 37.3768 40.8449 36.6659 40.7457 35.9279C40.6432 35.1908 40.663 34.4373 40.8037 33.7101C40.9445 32.9828 41.2041 32.2931 41.57 31.6812C41.9337 31.067 42.3983 30.5398 42.9408 30.1339C43.4833 29.7279 44.0933 29.4511 44.7364 29.3255C45.3792 29.1961 46.0385 29.2212 46.6744 29.3998C47.3101 29.5784 47.9046 29.9054 48.4247 30.3564C48.946 30.8048 49.3828 31.3683 49.7138 32.0106C50.0448 32.6529 50.2648 33.3637 50.3639 34.1015C50.4665 34.8388 50.4467 35.5925 50.3059 36.3199C50.1652 37.0474 49.9055 37.7373 49.5395 38.3495C49.1757 38.9635 48.711 39.4904 48.1686 39.8961Z" stroke="black"/>
<path d="M29.445 57.0827L29.4459 57.0822C29.5605 57.0095 29.8886 56.8565 30.4793 56.6187C31.0546 56.3871 31.8459 56.0877 32.8574 55.7221C34.8097 55.0164 37.5734 54.0672 41.1694 52.8871L43.4997 60.3377L41.4196 61.3728C41.2302 61.4442 40.9124 61.6086 40.6456 61.8011C40.5077 61.9006 40.3505 62.0306 40.2314 62.1854C40.1336 62.3125 39.9224 62.6449 40.0614 63.0418L40.0616 63.0424C40.9663 65.6172 40.468 67.9642 39.3619 70.5922L39.3613 70.5937C38.8876 71.7276 38.2323 72.7361 37.4337 73.5616C36.635 74.3871 35.7082 75.0137 34.7063 75.4051L34.7038 75.4061C33.7039 75.8042 32.6472 75.9598 31.5948 75.8627C30.5423 75.7656 29.5149 75.4177 28.5725 74.838L28.5713 74.8373C24.5975 72.4114 23.0233 66.5529 25.0228 61.7985L25.0229 61.7982C25.7266 60.1225 27.2319 58.4788 29.445 57.0827ZM37.4616 65.8425C37.4205 65.0819 37.2548 64.3399 36.9747 63.6591C36.6975 62.9769 36.3111 62.3678 35.8378 61.8665C35.3643 61.365 34.8127 60.9808 34.2141 60.7365C33.616 60.4892 32.9819 60.3868 32.3483 60.4364C31.7147 60.4859 31.0944 60.6865 30.5236 61.0274C29.9515 61.3644 29.4404 61.8348 29.0199 62.4113C28.5993 62.9879 28.2784 63.6585 28.075 64.3836C27.8689 65.1077 27.7844 65.8723 27.8254 66.633C27.8664 67.3937 28.032 68.1358 28.3121 68.8168C28.5892 69.4993 28.9755 70.1088 29.449 70.6104C29.9225 71.1119 30.4743 71.4961 31.073 71.7402C31.6712 71.9873 32.3053 72.0896 32.939 72.0398C33.5725 71.9901 34.1926 71.7895 34.7632 71.4487C35.3354 71.1116 35.8468 70.6411 36.2674 70.0645C36.688 69.4877 37.0091 68.817 37.2125 68.0918C37.4184 67.3677 37.5028 66.6031 37.4616 65.8425Z" fill="#E4280F" stroke="black"/>
<path d="M43.8198 60.4062L72.599 49.7555C70.817 48.3446 69.0373 46.6705 66.475 46.3717C63.2554 45.9977 59.3897 47.2088 59.3897 47.2088C59.3897 47.2088 43.0295 52.2732 42.221 52.5333C42.1911 52.5423 43.8198 60.4062 43.8198 60.4062Z" fill="#D0CFCE"/>
<path d="M63.4463 46.1612L61.1235 55.1185L58.336 55.6783L60.6589 46.1612H63.4463Z" fill="#D9BFA6"/>
<path d="M63.4463 45.6014L61.1235 54.5586L58.336 55.6783L60.6589 46.1612L63.4463 45.6014Z" stroke="black"/>
<path d="M56.0131 56.2382L47.6508 50.6399L49.9737 49.5202L58.8006 54.5587L56.0131 56.2382Z" fill="#D9BFA6"/>
<path d="M56.0131 56.2382L47.6508 50.6399L49.9737 49.5202L58.8006 54.5587L56.0131 56.2382Z" stroke="black"/>
<path d="M55.5486 47.8407L52.7611 57.9176L49.9737 58.4775L52.2965 48.9604L55.5486 47.8407Z" fill="#D9BFA6"/>
<path d="M55.5486 47.8407L52.7611 57.3578L49.9737 58.4775L52.2965 48.9604L55.5486 47.8407Z" stroke="black"/>
<path d="M47.4016 88.3937C47.4016 88.3937 49.5556 70.5058 49.5438 71.099L49.5488 71.0971L50.4384 59.0373L43.9343 60.7168L41.8576 51.7595L41.2076 58.1582L41.1408 61.7034L41.1528 61.712C41.1677 61.593 41.8573 73.9721 41.8576 74.1909C41.8826 79.2616 43.9841 84.3231 47.4004 88.3942L47.4016 88.3937Z" fill="#9B9B9A"/>
<path d="M41.9035 52.0809L42.0553 61.8758C41.8968 66.6205 41.8958 69.1312 41.9035 70.7842C41.9285 75.8398 42.3575 83.8643 47.572 88.3234L49.9549 59.0373" stroke="black" stroke-width="2" stroke-miterlimit="10" stroke-linecap="round" stroke-linejoin="round"/>
<path d="M41.6283 52.1175C48.3692 49.8636 56.0608 47.4439 58.3319 46.8553C62.4321 45.7888 69.0269 44.5575 73.7676 49.7263L44.375 60.5312" stroke="black" stroke-width="2" stroke-miterlimit="10" stroke-linecap="round" stroke-linejoin="round"/>
<path d="M26.7449 56.2382L23.0283 70.7937" stroke="black" stroke-width="2" stroke-linecap="round"/>
<path d="M48.819 22.8476L36.9656 28.1292" stroke="black" stroke-width="2" stroke-linecap="round"/>
</svg>
