<svg width="107" height="147" viewBox="0 0 117 174" fill="none" xmlns="http://www.w3.org/2000/svg">
<rect x="20.9999" y="26.2105" width="85.0001" height="137.789" fill="black" stroke="black" stroke-width="4" stroke-linejoin="round"/>
<rect x="11" y="10" width="85.0001" height="137.789" fill="#A697BC" stroke="black" stroke-width="4" stroke-linejoin="round"/>
<path d="M80.7219 30.4674H73.9091V24.2584H82.4251C83.3789 24.2584 84.1283 25.6244 84.1283 27.3629V39.7807C84.1283 41.5192 83.3789 42.8852 82.4251 42.8852H80.7219V49.0941H77.3155V36.6763H80.7219V30.4674ZM77.3155 61.5119H80.7219V55.303H77.3155V61.5119ZM70.5027 24.2584H67.0963V49.0941H70.5027V24.2584ZM90.9412 98.7654V117.392C90.9412 120.807 89.4083 123.601 87.5348 123.601H84.1283V129.81C84.1283 136.702 81.0966 142.228 77.3155 142.228H29.6257C27.8188 142.228 26.0859 140.919 24.8083 138.591C23.5306 136.262 22.8128 133.103 22.8128 129.81V123.601H19.4064C17.5329 123.601 16 120.807 16 117.392V98.7654C16 95.3505 17.5329 92.5565 19.4064 92.5565H22.8128C22.8128 68.528 33.4749 49.0941 46.6578 49.0941H50.0642V41.2088C48.0203 39.0977 46.6578 35.0619 46.6578 30.4674C46.6578 23.6375 49.7235 18.0495 53.4706 18.0495C57.2176 18.0495 60.2834 23.6375 60.2834 30.4674C60.2834 35.0619 58.9209 39.0977 56.877 41.2088V49.0941H60.2834C61.4416 49.0941 62.5657 49.2804 63.6898 49.5908V67.7208H79.8363C82.6379 74.9945 84.137 83.6692 84.1283 92.5565H87.5348C89.4083 92.5565 90.9412 95.3505 90.9412 98.7654ZM46.6578 101.87C46.6578 97.7531 45.7605 93.8049 44.1635 90.8939C42.5664 87.9829 40.4003 86.3476 38.1417 86.3476C35.8831 86.3476 33.717 87.9829 32.12 90.8939C30.5229 93.8049 29.6257 97.7531 29.6257 101.87C29.6257 105.987 30.5229 109.935 32.12 112.846C33.717 115.757 35.8831 117.392 38.1417 117.392C40.4003 117.392 42.5664 115.757 44.1635 112.846C45.7605 109.935 46.6578 105.987 46.6578 101.87ZM77.3155 101.87C77.3155 97.7531 76.4183 93.8049 74.8212 90.8939C73.2241 87.9829 71.0581 86.3476 68.7995 86.3476C66.5409 86.3476 64.3748 87.9829 62.7777 90.8939C61.1806 93.8049 60.2834 97.7531 60.2834 101.87C60.2834 105.987 61.1806 109.935 62.7777 112.846C64.3748 115.757 66.5409 117.392 68.7995 117.392C71.0581 117.392 73.2241 115.757 74.8212 112.846C76.4183 109.935 77.3155 105.987 77.3155 101.87ZM70.5027 55.303H67.0963V61.5119H70.5027V55.303Z" fill="black"/>
</svg>
