<svg width="107" height="147" viewBox="0 0 107 147" fill="none" xmlns="http://www.w3.org/2000/svg">
<rect x="19.9466" y="23.3684" width="76.0534" height="113.632" fill="black" stroke="black" stroke-width="4" stroke-linejoin="round"/>
<rect x="11" y="10" width="76.0534" height="113.632" fill="#A697BC" stroke="black" stroke-width="4" stroke-linejoin="round"/>
<path d="M48.1206 82.0884C46.3599 82.0884 44.8751 81.4663 43.6661 80.222C42.4541 78.9778 41.9215 77.514 42.0682 75.8306C42.2883 72.7566 43.0219 70.0852 44.2691 67.8163C45.5163 65.5474 47.497 63.2053 50.2114 60.79C53.2193 58.1552 55.5111 55.8673 57.0869 53.9263C58.6657 51.9882 59.4551 49.7749 59.4551 47.2864C59.4551 44.2856 58.4471 41.7972 56.4311 39.821C54.4122 37.8449 51.6053 36.8568 48.0106 36.8568C45.663 36.8568 43.6646 37.3501 42.0154 38.3367C40.3633 39.3263 39.0237 40.5529 37.9966 42.0167C36.9696 43.4805 35.7048 44.4686 34.2024 44.9809C32.697 45.4933 31.2473 45.4567 29.8534 44.8712C28.1661 44.1393 27.0114 42.9316 26.3893 41.2482C25.7642 39.5649 25.8919 37.9913 26.7722 36.5275C28.8997 33.2339 31.7609 30.4893 35.3556 28.2936C38.9503 26.0979 43.1687 25 48.0106 25C55.7136 25 61.6383 27.1415 65.7848 31.4246C69.9282 35.7048 72 40.8457 72 46.8473C72 50.5068 71.2121 53.6364 69.6363 56.2361C68.0575 58.8329 65.5808 61.7781 62.2062 65.0717C59.7118 67.4138 57.9511 69.3167 56.9241 70.7805C55.897 72.2443 55.2001 73.9277 54.8333 75.8306C54.5398 77.6604 53.7695 79.1608 52.5223 80.3318C51.2752 81.5029 49.8079 82.0884 48.1206 82.0884ZM48.0106 108.437C45.5896 108.437 43.5179 107.578 41.7953 105.859C40.0699 104.138 39.2071 102.069 39.2071 99.6541C39.2071 97.2388 40.0699 95.1704 41.7953 93.449C43.5179 91.7305 45.5896 90.8712 48.0106 90.8712C50.4315 90.8712 52.5047 91.7305 54.2302 93.449C55.9528 95.1704 56.814 97.2388 56.814 99.6541C56.814 102.069 55.9528 104.138 54.2302 105.859C52.5047 107.578 50.4315 108.437 48.0106 108.437Z" fill="black"/>
</svg>
