<svg width="74" height="97" viewBox="0 0 74 97" fill="none" xmlns="http://www.w3.org/2000/svg">
<g clip-path="url(#clip0_39_1472)">
<path d="M26.6109 77.4579L29.1527 71.789L42.2588 28.2197L46.5672 17.5001L53.3186 19.0614L61.7493 10.5L54.7449 25.2441L51.4074 23.0313L48.8754 29.2638L36.361 68.8798L33.8387 75.6759L41.7554 75.5763L24.7872 86.5L31.2484 78.527L26.6109 77.4579Z" fill="black" stroke="black" stroke-linejoin="round"/>
<path d="M53.3707 28.6712L59.4907 27.5094C60.9621 27.2301 62.4824 27.3694 63.8785 27.9115L64.5866 28.1865C67.2334 29.2143 68.9489 31.7945 68.8724 34.6329L68.7918 37.6214C68.7385 39.5981 67.1208 41.1728 65.1433 41.1728H62.6596C61.5276 41.1728 60.7008 40.1034 60.9858 39.0079C61.3215 37.7175 60.1323 36.5486 58.8479 36.9064L54.3718 38.1532C52.7483 38.6055 51.6251 40.0843 51.6251 41.7696C51.6251 43.1396 52.3714 44.4008 53.5722 45.0602L54.714 45.6872C56.7391 46.7993 58.5165 48.3121 59.9379 50.1335L61.2601 51.8278C61.5809 52.2388 61.8654 52.6769 62.1103 53.1372L63.2464 55.2724C64.4248 57.4871 65.0412 59.9575 65.0412 62.4664V62.934C65.0412 65.2646 64.2405 67.5244 62.7731 69.335C60.4301 72.226 57.0016 74.0267 53.2915 74.3149L46.9286 74.809C45.4095 74.927 43.8934 74.5461 42.6104 73.7241L40.6042 72.4387C38.2296 70.9173 37.0247 68.1002 37.5647 65.3322L37.9006 63.6106C38.3355 61.3815 40.2885 59.7727 42.5597 59.7727H45.8626C47.2338 59.7727 48.2471 61.0506 47.9345 62.3858C47.9026 62.5221 47.8865 62.6616 47.8865 62.8016V63.8858C47.8865 64.8743 48.8966 65.5412 49.8057 65.153C51.7924 64.3044 52.9685 62.2086 52.6899 60.0663C52.5702 59.1459 52.1888 58.2672 51.5935 57.5552L45.9071 50.7546L43.2707 46.8938C42.0235 45.0673 41.7128 42.7588 42.4328 40.6675L44.0375 36.0068C44.399 34.9568 45.0051 34.008 45.8058 33.2385L47.2937 31.8085C48.9722 30.1954 51.0836 29.1054 53.3707 28.6712Z" fill="black" stroke="black" stroke-linejoin="round"/>
<path d="M20.4884 31.591H11.5136C10.2145 31.591 9.26018 32.8101 9.57205 34.0712L18.2494 69.1579C18.6197 70.6553 19.818 71.8063 21.3291 72.1161L31.6815 74.2386C33.7457 74.6618 35.7842 73.4111 36.3421 71.3792L47.192 31.8661C47.5415 30.593 46.5835 29.3365 45.2633 29.3365H35.8509C34.4117 29.3365 33.1753 30.3586 32.9045 31.7721L27.4329 60.3363L22.4555 33.2298C22.2812 32.2804 21.4536 31.591 20.4884 31.591Z" fill="black" stroke="black" stroke-linejoin="round"/>
<path d="M51.3915 28.1076L57.5115 26.9458C58.9829 26.6665 60.5031 26.8058 61.8993 27.3479L62.6073 27.6228C65.2542 28.6506 66.9697 31.2309 66.8931 34.0692L66.8126 37.0577C66.7593 39.0344 65.1415 40.6092 63.1641 40.6092H60.6804C59.5484 40.6092 58.7216 39.5398 59.0066 38.4442C59.3422 37.1538 58.1531 35.9849 56.8686 36.3427L52.3926 37.5895C50.769 38.0418 49.6459 39.5206 49.6459 41.206C49.6459 42.576 50.3921 43.8372 51.593 44.4966L52.7347 45.1236C54.7598 46.2356 56.5372 47.7485 57.9586 49.5698L59.2809 51.2641C59.6017 51.6752 59.8861 52.1133 60.131 52.5736L61.2671 54.7087C62.4456 56.9235 63.0619 59.3939 63.0619 61.9027V62.3703C63.0619 64.7009 62.2612 66.9607 60.7938 68.7713C58.4509 71.6624 55.0224 73.4631 51.3123 73.7512L44.9494 74.2453C43.4303 74.3633 41.9141 73.9824 40.6312 73.1604L38.625 71.8751C36.2503 70.3537 35.0454 67.5365 35.5855 64.7685L35.9214 63.047C36.3563 60.8178 38.3093 59.2091 40.5804 59.2091H43.8834C45.2546 59.2091 46.2679 60.487 45.9553 61.8221C45.9234 61.9584 45.9073 62.0979 45.9073 62.2379V63.3221C45.9073 64.3106 46.9174 64.9776 47.8264 64.5893C49.8131 63.7407 50.9893 61.6449 50.7106 59.5026C50.5909 58.5822 50.2096 57.7036 49.6142 56.9915L43.9279 50.1909L41.2915 46.3301C40.0443 44.5036 39.7336 42.1951 40.4536 40.1039L42.0583 35.4431C42.4198 34.3932 43.0259 33.4443 43.8265 32.6748L45.3145 31.2448C46.993 29.6318 49.1044 28.5417 51.3915 28.1076Z" fill="#FF5E5E" stroke="black" stroke-linejoin="round"/>
<path d="M16.5297 29.9002H7.55488C6.25583 29.9002 5.3015 31.1193 5.61337 32.3803L14.2907 67.467C14.6611 68.9644 15.8593 70.1154 17.3704 70.4252L27.7229 72.5477C29.787 72.9709 31.8255 71.7202 32.3835 69.6884L43.2333 30.1752C43.5828 28.9021 42.6248 27.6456 41.3047 27.6456H31.8923C30.453 27.6456 29.2166 28.6677 28.9458 30.0812L23.4742 58.6455L18.4968 31.539C18.3225 30.5896 17.495 29.9002 16.5297 29.9002Z" fill="#FF5E5E" stroke="black" stroke-linejoin="round"/>
<path d="M42.6081 49.6272L39.9689 58.6453L45.9071 59.7726V63.1544L47.2267 64.2817L48.5463 63.718L49.8659 62.0271L50.5257 59.7726L49.8659 58.0817L42.6081 49.6272Z" fill="black" stroke="black"/>
<g style="mix-blend-mode:luminosity">
<path d="M32.0515 31.0273L26.1134 56.9545" stroke="white" stroke-width="2" stroke-linecap="round" stroke-linejoin="round"/>
</g>
<g style="mix-blend-mode:luminosity">
<path d="M16.2167 65.4089L7.95532 32.8369C7.79503 32.2049 8.27264 31.591 8.92462 31.591H11.5981" stroke="white" stroke-width="2" stroke-linecap="round" stroke-linejoin="round"/>
</g>
<g style="mix-blend-mode:luminosity">
<path d="M42.6081 60.8999V60.8999C40.4622 60.2888 38.2453 61.6137 37.7669 63.793L37.4646 65.1705C36.9891 67.3368 37.9407 69.5661 39.8339 70.7213L41.2886 71.6089" stroke="white" stroke-width="2" stroke-linecap="round" stroke-linejoin="round"/>
</g>
<g style="mix-blend-mode:luminosity">
<path d="M43.928 35.5364L42.439 40.3064C41.7231 42.6 42.2335 45.1005 43.791 46.93L46.5672 50.1909L49.8662 54.1363L51.8456 56.3909" stroke="white" stroke-width="2" stroke-linecap="round" stroke-linejoin="round"/>
</g>
</g>
<defs>
<clipPath id="clip0_39_1472">
<rect width="74" height="96" fill="white" transform="translate(0 0.5)"/>
</clipPath>
</defs>
</svg>
